<?xml version="1.0" encoding="UTF-8"?>
<svg width="1000" height="1200" viewBox="0 0 500 600"
     xmlns="http://www.w3.org/2000/svg">
  <!-- ANOVEX Tree Logo — #000000 — transparent background -->

  <!-- ── Kmen (trunk) ── -->
  <line x1="250" y1="370" x2="250" y2="440.0"
    stroke="#000000" stroke-width="7.0" stroke-linecap="round"/>

  <!-- ── Spodní větve (lower branches) ── -->
  <line x1="250" y1="417.6" x2="182.8" y2="454.0"
    stroke="#000000" stroke-width="5.04" stroke-linecap="round"/>
  <line x1="250" y1="417.6" x2="317.2" y2="454.0"
    stroke="#000000" stroke-width="5.04" stroke-linecap="round"/>
  <line x1="205.2" y1="440.0" x2="166.0" y2="459.6"
    stroke="#000000" stroke-width="3.36" stroke-linecap="round" opacity="0.6"/>
  <line x1="294.8" y1="440.0" x2="334.0" y2="459.6"
    stroke="#000000" stroke-width="3.36" stroke-linecap="round" opacity="0.6"/>

  <!-- ── Hlavní stonek ── -->
  <line x1="250" y1="140.4" x2="250" y2="370"
    stroke="#000000" stroke-width="8.399999999999999" stroke-linecap="round"/>

  <!-- ── Střední větve (mid branches) ── -->
  <line x1="250" y1="314.0" x2="160.4" y2="258.0"
    stroke="#000000" stroke-width="6.16" stroke-linecap="round"/>
  <line x1="250" y1="314.0" x2="339.6" y2="258.0"
    stroke="#000000" stroke-width="6.16" stroke-linecap="round"/>
  <circle cx="138.0" cy="238.4" r="19.599999999999998" fill="#000000"/>
  <circle cx="362.0" cy="238.4" r="19.599999999999998" fill="#000000"/>

  <line x1="250" y1="258.0" x2="166.0" y2="190.8"
    stroke="#000000" stroke-width="5.6" stroke-linecap="round"/>
  <line x1="250" y1="258.0" x2="334.0" y2="190.8"
    stroke="#000000" stroke-width="5.6" stroke-linecap="round"/>
  <line x1="166.0" y1="224.4" x2="104.4" y2="179.60000000000002"
    stroke="#000000" stroke-width="4.199999999999999" stroke-linecap="round"/>
  <line x1="334.0" y1="224.4" x2="395.6" y2="179.60000000000002"
    stroke="#000000" stroke-width="4.199999999999999" stroke-linecap="round"/>
  <circle cx="146.4" cy="168.4" r="16.799999999999997" fill="#000000"/>
  <circle cx="353.6" cy="168.4" r="16.799999999999997" fill="#000000"/>
  <circle cx="84.80000000000001" cy="160.0" r="15.399999999999999" fill="#000000" opacity="0.85"/>
  <circle cx="415.2" cy="160.0" r="15.399999999999999" fill="#000000" opacity="0.85"/>

  <!-- ── Horní větve (upper branches) ── -->
  <line x1="250" y1="196.4" x2="188.4" y2="146.0"
    stroke="#000000" stroke-width="5.04" stroke-linecap="round"/>
  <line x1="250" y1="196.4" x2="311.6" y2="146.0"
    stroke="#000000" stroke-width="5.04" stroke-linecap="round"/>
  <line x1="188.4" y1="168.4" x2="132.4" y2="123.60000000000002"
    stroke="#000000" stroke-width="3.6399999999999997" stroke-linecap="round"/>
  <line x1="311.6" y1="168.4" x2="367.6" y2="123.60000000000002"
    stroke="#000000" stroke-width="3.6399999999999997" stroke-linecap="round"/>
  <circle cx="171.60000000000002" cy="129.20000000000002" r="14.0" fill="#000000"/>
  <circle cx="328.4" cy="129.20000000000002" r="14.0" fill="#000000"/>
  <circle cx="112.80000000000001" cy="106.80000000000001" r="12.6" fill="#000000" opacity="0.8"/>
  <circle cx="387.2" cy="106.80000000000001" r="12.6" fill="#000000" opacity="0.8"/>

  <!-- ── Vrchol ── -->
  <line x1="250" y1="140.4" x2="250" y2="90.0"
    stroke="#000000" stroke-width="5.04" stroke-linecap="round"/>
  <line x1="250" y1="90.0" x2="188.4" y2="39.6"
    stroke="#000000" stroke-width="3.6399999999999997" stroke-linecap="round"/>
  <line x1="250" y1="90.0" x2="311.6" y2="39.6"
    stroke="#000000" stroke-width="3.6399999999999997" stroke-linecap="round"/>
  <line x1="188.4" y1="168.4" x2="132.4" y2="123.60000000000002"
    stroke="#000000" stroke-width="3.6399999999999997" stroke-linecap="round"/>
  <line x1="311.6" y1="168.4" x2="367.6" y2="123.60000000000002"
    stroke="#000000" stroke-width="3.6399999999999997" stroke-linecap="round"/>

  <!-- ── Vrcholový kruh ── -->
  <circle cx="250" cy="67.60000000000002" r="22.4" fill="#000000"/>

</svg>